<?xml version="1.0" standalone="no"?>
<!DOCTYPE svg PUBLIC "-//W3C//DTD SVG 20010904//EN"
 "http://www.w3.org/TR/2001/REC-SVG-20010904/DTD/svg10.dtd">
<svg version="1.0" xmlns="http://www.w3.org/2000/svg"
 width="585.000000pt" height="427.000000pt" viewBox="0 0 585.000000 427.000000"
 preserveAspectRatio="xMidYMid meet">
<metadata>
Created by potrace 1.16, written by Peter Selinger 2001-2019
</metadata>
<g transform="translate(0.000000,427.000000) scale(0.100000,-0.100000)"
fill="#000000" stroke="none">
<path d="M2826 4023 c-6 -19 -25 -149 -26 -170 0 -10 54 -13 236 -13 l237 0
-8 48 c-4 26 -10 70 -14 97 l-6 50 -207 3 c-190 2 -207 1 -212 -15z"/>
<path d="M2696 3773 c-3 -10 -7 -45 -11 -78 -11 -118 -26 -252 -40 -365 -38
-308 -45 -363 -55 -465 -6 -60 -18 -157 -26 -215 -9 -58 -14 -123 -12 -145 3
-36 6 -40 38 -48 19 -4 58 -14 85 -22 28 -7 73 -19 100 -25 51 -12 97 -25 196
-55 59 -18 59 -18 206 26 53 16 225 61 271 70 24 5 48 12 54 15 13 8 1 162
-31 409 -27 210 -40 316 -51 415 -6 58 -17 155 -25 215 -8 61 -17 142 -21 180
-10 115 23 105 -349 105 -300 0 -324 -1 -329 -17z m507 -487 c31 -16 57 -33
57 -38 0 -4 7 -8 15 -8 8 0 15 -4 15 -10 0 -5 6 -10 13 -10 6 0 21 -15 33 -33
18 -28 19 -34 7 -46 -12 -11 -21 -6 -56 29 -39 39 -74 59 -157 91 -52 20 -155
15 -224 -11 -59 -23 -76 -33 -127 -82 -26 -24 -29 -25 -43 -9 -13 14 -13 18 2
37 31 37 89 73 182 113 14 6 70 10 125 8 88 -2 107 -5 158 -31z m-48 -131 c56
-25 105 -69 105 -95 0 -26 -26 -31 -46 -9 -9 10 -36 30 -60 44 -35 21 -56 25
-118 25 -79 0 -134 -19 -171 -60 -17 -19 -20 -19 -36 -4 -10 9 -15 22 -13 29
9 23 80 66 141 85 68 22 123 18 198 -15z m-74 -286 c77 -54 -5 -168 -90 -125
-64 33 -36 146 36 146 14 0 38 -9 54 -21z"/>
<path d="M2082 2798 l3 -73 33 -3 32 -3 0 -119 0 -118 38 -43 c20 -23 45 -51
55 -61 9 -10 17 -20 17 -23 0 -3 12 -18 28 -34 15 -15 44 -49 65 -74 21 -26
43 -47 49 -47 6 0 9 29 6 83 -3 75 -6 85 -33 113 -89 91 -85 82 -85 209 l0
115 30 0 30 0 0 75 0 75 -135 0 -136 0 3 -72z"/>
<path d="M3710 2795 l0 -75 30 0 30 0 0 -115 c0 -127 4 -118 -85 -209 -27 -28
-30 -38 -33 -113 -3 -54 0 -83 6 -83 6 0 28 21 49 47 21 25 50 59 66 74 15 16
27 31 27 34 0 3 8 13 18 23 9 10 34 38 55 61 l37 43 0 118 0 119 33 3 32 3 3
73 3 72 -136 0 -135 0 0 -75z"/>
<path d="M2440 2284 l0 -134 590 0 590 0 0 135 0 135 -32 -6 c-18 -3 -60 -11
-93 -19 -33 -8 -89 -20 -125 -28 -36 -9 -92 -20 -125 -27 -33 -6 -85 -18 -116
-26 -71 -18 -139 -18 -203 0 -28 8 -78 20 -111 26 -33 6 -78 16 -100 22 -22 5
-62 13 -90 18 -27 5 -63 13 -80 18 -16 6 -47 13 -67 16 l-38 5 0 -135z"/>
<path d="M2980 1975 l0 -165 50 0 50 0 0 165 0 165 -50 0 -50 0 0 -165z"/>
<path d="M2907 1770 c-37 -5 -90 -13 -118 -19 -27 -6 -70 -11 -94 -11 -24 0
-46 -4 -49 -9 -3 -5 -3 -30 0 -55 8 -58 -6 -57 293 -10 85 14 105 14 185 0
149 -25 234 -36 272 -36 l35 0 -3 53 -3 52 -75 7 c-41 3 -98 11 -126 17 -75
15 -240 21 -317 11z"/>
<path d="M1530 865 l0 -325 40 0 40 0 0 199 c0 157 3 201 14 210 9 8 64 11
172 9 l159 -3 3 -207 2 -208 41 0 40 0 -3 219 c-3 217 -3 220 -27 245 l-24 26
-189 0 -188 0 0 80 0 80 -40 0 -40 0 0 -325z"/>
<path d="M870 1115 l0 -35 135 0 135 0 0 -270 0 -270 40 0 40 0 0 270 0 270
135 0 135 0 0 35 0 35 -310 0 -310 0 0 -35z"/>
<path d="M2708 1127 c-36 -29 -48 -65 -48 -140 0 -85 15 -132 49 -157 27 -19
44 -20 248 -20 157 0 222 -3 231 -12 7 -7 12 -43 12 -90 0 -66 -3 -79 -19 -88
-12 -6 -99 -10 -214 -10 -175 0 -195 2 -210 18 -10 10 -17 24 -17 30 0 7 -16
12 -40 12 -28 0 -40 -4 -40 -14 0 -29 22 -71 47 -93 26 -22 32 -23 264 -23
l239 0 32 29 33 29 0 115 c0 113 0 116 -28 141 l-28 26 -220 0 c-133 0 -228 4
-240 10 -16 9 -19 22 -19 90 0 68 3 81 19 90 12 6 101 10 218 10 206 0 223 -3
223 -42 0 -14 8 -18 41 -18 l42 0 -7 43 c-4 29 -15 49 -34 64 -26 22 -33 23
-267 23 -234 0 -241 -1 -267 -23z"/>
<path d="M2119 1004 c-24 -25 -24 -28 -24 -214 l0 -189 29 -30 30 -31 218 0
218 0 0 35 0 35 -198 0 c-141 0 -201 3 -210 12 -7 7 -12 38 -12 70 l0 58 210
0 210 0 0 115 c0 109 -1 115 -25 140 l-26 25 -198 0 -198 0 -24 -26z m389
-116 l3 -68 -171 0 -170 0 0 63 c0 35 3 67 7 71 4 3 79 5 167 4 l161 -3 3 -67z"/>
<path d="M3350 785 l0 -245 40 0 40 0 0 245 0 245 -40 0 -40 0 0 -245z"/>
<path d="M3555 1005 l-25 -26 0 -194 0 -193 31 -26 31 -26 219 0 219 0 0 35 0
35 -198 0 c-141 0 -201 3 -210 12 -7 7 -12 38 -12 70 l0 58 211 0 211 0 -4
114 c-3 105 -5 117 -27 140 l-24 26 -198 0 -198 0 -26 -25z m393 -117 l3 -68
-171 0 -170 0 0 63 c0 35 3 67 7 71 4 3 79 5 167 4 l161 -3 3 -67z"/>
<path d="M4129 1012 c-35 -36 -39 -61 -39 -222 0 -170 4 -189 48 -227 24 -22
33 -23 199 -23 l173 0 0 -60 0 -60 -165 0 -165 0 0 -35 0 -35 181 0 181 0 29
31 29 31 0 278 0 278 -29 31 -29 31 -199 -1 c-172 0 -200 -2 -214 -17z m381
-221 c0 -145 -2 -170 -16 -175 -27 -10 -284 -7 -305 4 -18 10 -19 23 -19 169
0 87 3 161 7 164 3 4 80 7 170 7 l163 0 0 -169z"/>
<path d="M4689 1004 c-24 -25 -24 -28 -24 -214 l0 -189 29 -30 30 -31 218 0
218 0 0 35 0 35 -198 0 c-141 0 -201 3 -210 12 -7 7 -12 38 -12 70 l0 58 211
0 211 0 -4 119 c-4 168 7 161 -248 161 l-197 0 -24 -26z m389 -116 l3 -68
-171 0 -170 0 0 63 c0 35 3 67 7 71 4 3 79 5 167 4 l161 -3 3 -67z"/>
</g>
</svg>
