<svg xmlns="http://www.w3.org/2000/svg" viewBox="0 0 352 391" width="352" height="391">
	<style>
		tspan { white-space:pre }
		.shp0 { fill: #ffffff } 
	</style>
	<g id="Layer">
		<path id="Layer" class="shp0" d="M152 14.2C152 14.4 151.1 19.7 150 26C148.9 32.3 148 38.3 148 39.2C148 40.9 150.2 41 180 41L212 41L211.9 37.7C211.9 36 211.1 30 210.2 24.5L208.5 14.5L180.3 14.2C164.7 14.1 152 14.1 152 14.2Z" />
		<path id="Layer" fill-rule="evenodd" class="shp0" d="M134.2 48L179 48C207.6 48 224.1 48.4 224.5 49C225.4 50.4 246.4 229 245.7 229.6C245.5 229.9 230.4 234 212.3 238.7L179.3 247.2L146.5 238.7C128.5 234 113.5 229.9 113.3 229.6C112.8 229.1 132.4 57.2 133.6 50.7L134.2 48ZM157.2 117C151.3 119.6 140.7 127.3 138.7 130.4C137.2 132.7 137.2 133 138.9 135.1L140.7 137.4L146.1 132.6C166.7 114.5 196 115.1 214.7 133.9L220.7 140L223 137.5L225.2 135.1L222.3 131.5C218.9 127.4 210.3 120.7 205 118C203.1 117 198.6 115.3 195.1 114.1C184.1 110.5 169.4 111.6 157.2 117ZM172 132.3C165.3 133.8 155.2 139.1 151.4 143.1L148.6 146L151.2 148.7L153.9 151.3L157.3 148.3C164.1 142.4 169.5 140.5 180 140.5C191.2 140.5 196.2 142.3 203.5 149.1L208.2 153.5L210.6 150.5C212.8 147.7 212.8 147.5 211.2 145.6C207.5 141.4 199.7 136 194.8 134.2C187.7 131.6 178.7 130.8 172 132.3ZM163.8 158.7C162.2 160.1 162.2 160.4 163.7 162.7C165.3 165.1 165.3 165.1 167.4 163.1C173.6 157.3 186.2 157.6 193.3 163.8C194.9 165.2 195.2 165.2 197.1 163.4C199.1 161.4 199.1 161.4 194.8 158.4C192.4 156.8 189.2 154.9 187.7 154.2C181.4 151.5 169.2 153.8 163.8 158.7ZM169 179.4C165.5 190.2 179.2 198.6 187.3 190.5C192.1 185.7 191.3 177.4 185.7 173.7C179.7 169.8 171.3 172.6 169 179.4Z" />
		<path id="Layer" class="shp0" d="M49.2 184.7L49.5 194.5L53.8 194.8L58 195.1L58 211.1L58 227.1L74.8 247C84 257.9 92.1 266.9 92.8 266.9C93.7 267 94 264.3 94 256.7L94 246.4L85.5 236.4L77 226.5L77 210.8L77 195.1L81.3 194.8L85.5 194.5L85.8 184.7L86.1 175L67.5 175L48.9 175L49.2 184.7Z" />
		<path id="Layer" class="shp0" d="M273 185L273 195L277.5 195L282 195L282 210.7L282 226.5L273.5 236.4L265 246.4L265 256.7C265 264.3 265.3 267 266.3 266.9C266.9 266.9 275 257.9 284.3 247L301 227.1L301 211.1L301 195.1L305.3 194.8L309.5 194.5L309.8 184.7L310.1 175L291.5 175L273 175L273 185Z" />
		<path id="Layer" class="shp0" d="M99 255.4L99 274L179.5 274L260 274L260 255.4C260 238.2 259.9 236.9 258.3 237.4C253.4 238.8 181.1 254 179.3 254C177.5 254 105.3 238.7 100.8 237.4C99.1 236.9 99 238.2 99 255.4Z" />
		<path id="Layer" class="shp0" d="M173 298L173 320L179.5 320L186 320L186 298L186 276L179.5 276L173 276L173 298Z" />
		<path id="Layer" class="shp0" d="M149.5 328.4L126.5 331.5L126.8 338C127 341.6 127.5 344.8 127.8 345.2C128.2 345.5 140 344.3 154 342.3L179.5 338.8L205.9 342.4C220.5 344.4 232.7 345.7 233.1 345.3C233.5 344.8 234.2 341.7 234.6 338.3C235.2 332.3 235.2 332.1 232.9 331.6C226.1 330.2 182.4 325 177.8 325.1C174.9 325.2 162.2 326.7 149.5 328.4Z" />
		<path id="Layer" class="shp0" d="M131.5 351.1C125.4 354.6 124.2 361.4 128.9 366.1C132.9 370 137.6 370.1 141.3 366.2C144.8 362.6 145 357.2 141.8 353.6C139.2 350.6 134.4 349.5 131.5 351.1Z" />
		<path id="Layer" class="shp0" d="M177 350.7C167.1 354.5 169.3 369 179.8 369C184.8 369 189.3 363.1 188.3 357.8C187.4 353.1 181.1 349.1 177 350.7Z" />
		<path id="Layer" class="shp0" d="M221 350.7C214.6 353 212.9 361.2 217.7 366.2C221.4 370.1 226.1 370 230.1 366.1C235.1 361.1 233.4 353.4 226.8 351.1C223.4 349.9 223.2 349.9 221 350.7Z" />
	</g>
</svg>