<?xml version="1.0" standalone="no"?>
<!DOCTYPE svg PUBLIC "-//W3C//DTD SVG 20010904//EN"
 "http://www.w3.org/TR/2001/REC-SVG-20010904/DTD/svg10.dtd">
<svg version="1.0" xmlns="http://www.w3.org/2000/svg"
 width="352.000000pt" height="391.000000pt" viewBox="0 0 352.000000 391.000000"
 preserveAspectRatio="xMidYMid meet">
<metadata>
Created by potrace 1.16, written by Peter Selinger 2001-2019
</metadata>
<g transform="translate(0.000000,391.000000) scale(0.100000,-0.100000)"
fill="#000000" stroke="none">
<path d="M1520 3768 c0 -2 -9 -55 -20 -118 -11 -63 -20 -123 -20 -132 0 -17
22 -18 320 -18 l320 0 -1 33 c0 17 -8 77 -17 132 l-17 100 -282 3 c-156 1
-283 1 -283 0z"/>
<path d="M1336 3403 c-12 -65 -208 -1784 -203 -1789 2 -3 152 -44 332 -91
l328 -85 330 85 c181 47 332 88 334 91 7 6 -203 1792 -212 1806 -4 6 -169 10
-455 10 l-448 0 -6 -27z m615 -634 c35 -12 80 -29 99 -39 53 -27 139 -94 173
-135 l29 -36 -22 -24 -23 -25 -60 61 c-187 188 -480 194 -686 13 l-54 -48 -18
23 c-17 21 -17 24 -2 47 20 31 126 108 185 134 122 54 269 65 379 29z m-3
-201 c49 -18 127 -72 164 -114 16 -19 16 -21 -6 -49 l-24 -30 -47 44 c-73 68
-123 86 -235 86 -105 0 -159 -19 -227 -78 l-34 -30 -27 26 -26 27 28 29 c38
40 139 93 206 108 67 15 157 7 228 -19z m-71 -200 c15 -7 47 -26 71 -42 43
-30 43 -30 23 -50 -19 -18 -22 -18 -38 -4 -71 62 -197 65 -259 7 -21 -20 -21
-20 -37 4 -15 23 -15 26 1 40 54 49 176 72 239 45z m-20 -195 c56 -37 64 -120
16 -168 -81 -81 -218 3 -183 111 23 68 107 96 167 57z"/>
<path d="M492 2063 l3 -98 43 -3 42 -3 0 -160 0 -160 168 -199 c92 -109 173
-199 180 -199 9 -1 12 26 12 102 l0 103 -85 100 -85 99 0 157 0 157 43 3 42 3
3 98 3 97 -186 0 -186 0 3 -97z"/>
<path d="M2730 2060 l0 -100 45 0 45 0 0 -157 0 -158 -85 -99 -85 -100 0 -103
c0 -76 3 -103 13 -102 6 0 87 90 180 199 l167 199 0 160 0 160 43 3 42 3 3 98
3 97 -186 0 -185 0 0 -100z"/>
<path d="M990 1356 l0 -186 805 0 805 0 0 186 c0 172 -1 185 -17 180 -49 -14
-772 -166 -790 -166 -18 0 -740 153 -785 166 -17 5 -18 -8 -18 -180z"/>
<path d="M1730 930 l0 -220 65 0 65 0 0 220 0 220 -65 0 -65 0 0 -220z"/>
<path d="M1495 626 l-230 -31 3 -65 c2 -36 7 -68 10 -72 4 -3 122 9 262 29
l255 35 264 -36 c146 -20 268 -33 272 -29 4 5 11 36 15 70 6 60 6 62 -17 67
-68 14 -505 66 -551 65 -29 -1 -156 -16 -283 -33z"/>
<path d="M1315 399 c-61 -35 -73 -103 -26 -150 40 -39 87 -40 124 -1 35 36 37
90 5 126 -26 30 -74 41 -103 25z"/>
<path d="M1770 403 c-99 -38 -77 -183 28 -183 50 0 95 59 85 112 -9 47 -72 87
-113 71z"/>
<path d="M2210 403 c-64 -23 -81 -105 -33 -155 37 -39 84 -38 124 1 50 50 33
127 -33 150 -34 12 -36 12 -58 4z"/>
</g>
</svg>
